<?xml version="1.0" ?><!DOCTYPE svg  PUBLIC '-//W3C//DTD SVG 1.0//EN'  'http://www.w3.org/TR/2001/REC-SVG-20010904/DTD/svg10.dtd'><svg enable-background="new 0 0 32 32" height="32px" id="Layer_1" version="1.0" viewBox="0 0 32 32" width="32px" xml:space="preserve" xmlns="http://www.w3.org/2000/svg" xmlns:xlink="http://www.w3.org/1999/xlink"><g><path d="M15.999-0.003c-8.839,0-16.002,7.165-16.002,16.002c0,4.223,1.648,8.053,4.321,10.911   c1.058-1.248,2.328-2.259,3.788-2.997c1.714-0.869,3.559-1.309,5.487-1.309c3.061,0,5.986,1.143,8.238,3.219   c1.137,1.049,2.049,2.288,2.72,3.685C29.023,26.669,32,21.688,32,15.999C32,7.162,24.836-0.003,15.999-0.003z M23.576,22.213   c-0.208,0.299-0.542,0.458-0.879,0.458c-0.209,0-0.421-0.061-0.606-0.189c-2.506-1.738-5.445-2.654-8.497-2.654   c-1.767,0-3.495,0.303-5.138,0.906c-0.553,0.202-1.166-0.082-1.368-0.635c-0.203-0.554,0.08-1.167,0.635-1.369   c1.878-0.688,3.854-1.038,5.871-1.038c3.49,0,6.848,1.051,9.712,3.038C23.79,21.064,23.91,21.729,23.576,22.213z M25.903,17.294   c-0.23,0.363-0.619,0.563-1.021,0.563c-0.217,0-0.438-0.059-0.635-0.183c-3.191-1.995-6.875-3.05-10.654-3.05   c-2.1,0-4.171,0.324-6.159,0.961c-0.628,0.202-1.305-0.146-1.506-0.776c-0.204-0.632,0.144-1.308,0.775-1.51   c2.222-0.713,4.541-1.074,6.89-1.074c4.229,0,8.353,1.18,11.926,3.413C26.082,15.991,26.254,16.731,25.903,17.294z M27.077,13.025   c-0.228,0-0.461-0.06-0.675-0.184c-3.869-2.273-8.3-3.475-12.809-3.475c-2.438,0-4.852,0.347-7.174,1.029   c-0.705,0.21-1.447-0.195-1.655-0.901C4.558,8.789,4.962,8.048,5.667,7.839C8.234,7.084,10.9,6.7,13.594,6.7   c4.983,0,9.881,1.328,14.161,3.841c0.635,0.373,0.846,1.19,0.475,1.826C27.98,12.789,27.535,13.025,27.077,13.025z" fill="#78B842"/><path d="M13.594,28.249c-1.031,0-2.02,0.234-2.937,0.699c-0.68,0.347-1.285,0.801-1.803,1.354   C11.006,31.379,13.428,32,15.999,32c1.135,0,2.244-0.123,3.314-0.347c-0.344-0.629-0.781-1.192-1.309-1.68   C16.799,28.861,15.232,28.249,13.594,28.249z" fill="#78B842"/></g><g/><g/><g/><g/><g/><g/></svg>