<?xml version="1.0" ?><svg enable-background="new 0 0 232 232" id="music" version="1.1" viewBox="0 0 232 232" xml:space="preserve" xmlns="http://www.w3.org/2000/svg" xmlns:xlink="http://www.w3.org/1999/xlink"><g><path d="M116,0C52.0391,0,0,52.0371,0,116s52.0391,116,116,116s116-52.0371,116-116S179.9609,0,116,0z" fill="#314E55"/><path d="M116,224C56.4492,224,8,175.5508,8,116S56.4492,8,116,8s108,48.4492,108,108S175.5508,224,116,224z" fill="#E65F58"/><path d="M175.9766,76.8086c0.0117-11.8906,0.0234-23.123-0.1758-34.207c-0.0625-3.2422-2.0742-5.3008-5.2539-5.3711   c-1.9102-0.0586-3.8125,0.0801-5.7188,0.2148l-0.9727,0.0664c-10.3672,0.6797-20.5078,1.4121-30.6289,2.8906   c-18.2891,2.6719-34.5469,6.9102-49.7109,12.9609c-1.9102,0.7656-3.0938,2.3086-3.332,4.3359   c-0.168,1.418-0.1758,2.834-0.1758,4.3477c-0.0078,27.125-0.0156,54.25,0.0078,81.4668   c-8.9883-1.7051-17.4102,0.2207-25.1094,5.7305c-4.707,3.3672-7.9297,7.6348-9.5781,12.6758   c-2.5977,7.9102-1.4219,14.9941,3.4883,21.0566c2.418,2.9805,5.5664,4.5039,8.3281,5.6953   c4.4062,1.9023,8.7734,2.8535,13.082,2.8535c6.4727,0,12.8125-2.1445,18.9531-6.4238c6.8203-4.75,10.5273-11.623,10.7227-19.877   c0.0938-3.9492,0.0977-7.8965,0.1016-11.8457l0.0078-3.3926c0.0195-6.2129,0-12.4258-0.0156-18.6387   c-0.0352-11.2891-0.0703-22.9609,0.1445-34.4551c0-0.0684,0.0039-0.1348,0.0039-0.1992c0.0625-0.0176,0.1289-0.0371,0.1992-0.0566   c11.8555-3.457,23.7656-6.168,35.3945-8.0566c7.7578-1.2598,14.2578-2.0176,20.207-2.3496   c-0.0234,13.7031-0.0273,27.4023,0.0039,41.1035c-1.3828-0.2793-2.8594-0.4824-4.4062-0.5273   c-10.4375-0.3066-18.8711,3.1992-25.3164,10.3984c-4.8672,5.4395-6.9141,11.8672-5.918,18.5879   c1.2148,8.2363,6.1641,14.0996,14.7031,17.4258c8.9258,3.4766,18.0508,2.6406,27.1328-2.4961v-0.002   C171.2109,165.5918,176,157.4219,176,147.0957v-46.7305C175.9609,91.9824,175.9688,84.207,175.9766,76.8086z" fill="#314E55"/><path d="M168,147.0957c0,7.4824-3.2031,12.9336-9.793,16.6641c-6.9844,3.9453-13.6172,4.6094-20.2891,2.0059   c-5.8281-2.2695-8.9062-5.8105-9.6953-11.1426c-0.6523-4.418,0.6445-8.3691,3.9648-12.082   c4.8672-5.4395,11.0898-7.9785,19.1211-7.7383c2.1758,0.0645,4.3516,0.6309,6.1914,1.1758   c0.668,0.1973,2.7031,0.8008,4.5703-0.5879c0.8633-0.6445,1.8906-1.8984,1.8906-4.2227   c-0.0469-15.9297-0.043-31.8574-0.0078-47.7793c0.0078-1.6426-0.4922-2.9609-1.4844-3.9238   c-0.9883-0.9551-2.3398-1.373-3.9258-1.3574c-7.0625,0.2363-14.7148,1.0547-24.0859,2.5762   c-11.9531,1.9414-24.1836,4.7246-36.3867,8.2832c-4.6758,1.3594-5.8398,2.8867-5.9297,7.8145   c-0.2148,11.543-0.1797,23.2598-0.1445,34.5898c0.0156,6.1973,0.0352,12.3926,0.0156,18.5898l-0.0078,3.4082   c-0.0039,3.8887-0.0078,7.7754-0.1016,11.666c-0.1328,5.6797-2.5859,10.2246-7.293,13.5039   c-7.918,5.5137-15.8672,6.4277-24.293,2.7891c-2.4727-1.0684-4.1289-1.9648-5.2812-3.3906   c-3.1797-3.9199-3.8477-8.2168-2.1055-13.5273c1.125-3.4395,3.2969-6.2715,6.6328-8.6601   c4.5117-3.2286,9.2148-4.8321,14.2266-4.8321c2.5117,0,5.0977,0.4004,7.7773,1.2012c0.6758,0.2031,2.7461,0.8164,4.5977-0.5625   c1.8555-1.3848,1.8555-3.5488,1.8555-4.2637C87.9922,118.8789,88,90.4648,88.0078,61.9531c0-0.5898-0.0039-1.1777,0.0156-1.7676   c14.1328-5.4922,29.3203-9.3789,46.3594-11.8672c9.8281-1.4355,19.7969-2.1543,30-2.8242l1-0.0684   c0.8203-0.0566,1.6406-0.1152,2.4609-0.1562c0.1523,10.1953,0.1445,20.582,0.1328,31.5312   c-0.0078,7.4121-0.0156,15.2031,0.0234,23.584V147.0957z" fill="#FFFFFF"/></g></svg>